<svg xmlns="http://www.w3.org/2000/svg" xmlns:xlink="http://www.w3.org/1999/xlink" width="512" zoomAndPan="magnify" viewBox="0 0 384 383.999986" height="512" preserveAspectRatio="xMidYMid meet" version="1.2"><g id="72337017aa"><path style=" stroke:none;fill-rule:nonzero;fill:#000000;fill-opacity:1;" d="M 192.144531 43.269531 C 104.917969 43.269531 33.949219 114.207031 33.949219 201.394531 C 33.949219 288.582031 104.917969 359.519531 192.144531 359.519531 C 279.371094 359.519531 350.335938 288.582031 350.335938 201.394531 C 350.335938 114.207031 279.371094 43.269531 192.144531 43.269531 Z M 339.78125 201.394531 C 339.78125 226.078125 333.660156 249.34375 322.898438 269.808594 C 321.972656 267.089844 320.300781 263.867188 317.957031 260.21875 C 313.472656 253.277344 306.542969 244.820312 298.058594 235.632812 C 301.175781 224.132812 302.863281 212.035156 302.863281 199.542969 C 302.863281 175.738281 296.8125 153.34375 286.191406 133.792969 C 283.046875 126.902344 257.144531 80.699219 200.699219 54.085938 C 278.136719 58.53125 339.78125 122.890625 339.78125 201.394531 Z M 222.34375 201.394531 C 222.34375 218.066406 208.824219 231.582031 192.144531 231.582031 C 175.464844 231.582031 161.941406 218.066406 161.941406 201.394531 C 161.941406 184.722656 175.464844 171.207031 192.144531 171.207031 C 208.824219 171.207031 222.34375 184.722656 222.34375 201.394531 Z M 160.824219 121.484375 C 156.496094 139.0625 152.664062 158.261719 149.8125 177 C 131.910156 191.339844 115.453125 205.652344 101.671875 219.183594 C 88.078125 177.589844 105.375 130.914062 145.035156 108.859375 C 151.996094 105.003906 159.238281 102.121094 166.59375 100.175781 C 164.605469 106.894531 162.667969 114.042969 160.824219 121.484375 Z M 138.375 267.851562 C 155.753906 262.757812 174.617188 256.429688 192.257812 249.480469 C 213.679688 257.691406 234.402344 265.109375 253.042969 270.171875 C 223.984375 302.894531 174.9375 311.527344 135.878906 288.4375 C 128.773438 284.222656 122.441406 279.195312 116.902344 273.582031 C 123.765625 271.914062 130.945312 270.011719 138.375 267.851562 Z M 233.660156 177 L 233.671875 177 C 230.257812 154.324219 226.144531 132.910156 221.359375 114.207031 C 264.167969 123.347656 295.859375 161.742188 295.015625 207.097656 C 294.863281 214.714844 293.785156 222.09375 291.925781 229.148438 C 287.140625 224.199219 282.011719 219.109375 276.550781 213.941406 C 263.382812 201.511719 248.566406 188.714844 233.660156 177 Z M 186.3125 53.964844 C 184.492188 56.089844 182.609375 59.023438 180.695312 62.660156 C 176.90625 69.902344 173 79.890625 169.226562 91.628906 C 157.351562 94.707031 145.6875 99.417969 134.558594 105.878906 C 113.964844 117.832031 97.632812 134.3125 86.054688 153.3125 C 81.675781 159.492188 54.730469 205.050781 60.039062 267.171875 C 50.121094 247.351562 44.503906 225.023438 44.503906 201.394531 C 44.503906 121.976562 107.601562 57.042969 186.3125 53.964844 Z M 192.144531 348.972656 C 139.511719 348.972656 93.253906 321.277344 67.105469 279.726562 C 69.863281 280.242188 73.371094 280.394531 77.507812 280.21875 C 85.644531 279.859375 96.238281 278.195312 108.226562 275.582031 C 117.019531 284.535156 127.117188 292.488281 138.589844 298.988281 C 159.308594 310.71875 181.785156 316.5 204.039062 316.898438 C 211.613281 317.5625 264.902344 317.816406 316.039062 281.503906 C 289.699219 322.0625 244.019531 348.972656 192.144531 348.972656 Z M 192.144531 348.972656 "/></g></svg>